<svg id="Слой_1" data-name="Слой 1" xmlns="http://www.w3.org/2000/svg" xmlns:xlink="http://www.w3.org/1999/xlink" viewBox="0 0 151.61 67.21"><defs><linearGradient id="linear-gradient" x1="350.98" y1="259.44" x2="350.73" y2="285.08" gradientUnits="userSpaceOnUse"><stop offset="0" stop-color="#fbc779"/><stop offset="0.5" stop-color="#e7a12a"/><stop offset="0.54" stop-color="#d78b00"/><stop offset="1" stop-color="#da8c00"/></linearGradient><linearGradient id="linear-gradient-2" x1="378.74" y1="259.7" x2="378.5" y2="285.34" xlink:href="#linear-gradient"/><linearGradient id="linear-gradient-3" x1="408.78" y1="259.98" x2="408.54" y2="285.61" xlink:href="#linear-gradient"/><linearGradient id="linear-gradient-4" x1="429.95" y1="258.84" x2="430.2" y2="285.34" gradientUnits="userSpaceOnUse"><stop offset="0" stop-color="#89ad90"/><stop offset="0.5" stop-color="#83a88b"/><stop offset="0.54" stop-color="#719779"/><stop offset="1" stop-color="#719779"/></linearGradient><linearGradient id="linear-gradient-5" x1="449.29" y1="259.35" x2="449.29" y2="285.73" xlink:href="#linear-gradient-4"/><linearGradient id="linear-gradient-6" x1="476.2" y1="259.35" x2="476.2" y2="285.73" xlink:href="#linear-gradient-4"/></defs><title>tnd</title><path d="M361.45,259.24V265H352v11a4.47,4.47,0,0,0,1,3.15A3.79,3.79,0,0,0,356,280.2a9.56,9.56,0,0,0,2.55-.35,14.5,14.5,0,0,0,2.88-1.21v6.06a21.58,21.58,0,0,1-3.84,1.27,16.87,16.87,0,0,1-3.67.4,10.44,10.44,0,0,1-7-2.19q-3-2.54-3-7.8V265h-3.7v-1.62L351,250.86h1v8.37h9.41Z" transform="translate(-338.97 -246.23)" style="fill:url(#linear-gradient)"/><path d="M353.95,286.63a10.73,10.73,0,0,1-7.16-2.25c-2.06-1.73-3.11-4.42-3.11-8V265.21H340v-2l10.95-12.63h1.37V259h9.41v6.22h-9.41v10.72a4.25,4.25,0,0,0,1,3,3.57,3.57,0,0,0,2.76,1,9.34,9.34,0,0,0,2.48-.34,14.35,14.35,0,0,0,2.83-1.19l0.37-.2v6.64l-0.15.06a21.85,21.85,0,0,1-3.88,1.29A17.2,17.2,0,0,1,353.95,286.63Zm-13.47-21.92h3.7v11.68c0,3.41,1,6,2.93,7.6a10.25,10.25,0,0,0,6.84,2.14,16.69,16.69,0,0,0,3.61-.4,21.18,21.18,0,0,0,3.64-1.19v-5.48a14,14,0,0,1-2.57,1,9.85,9.85,0,0,1-2.61.36,4.05,4.05,0,0,1-3.12-1.21,4.73,4.73,0,0,1-1.1-3.32V264.71h9.41v-5.22h-9.41v-8.37h-0.64l-10.67,12.32v1.27Z" transform="translate(-338.97 -246.23)" style="fill:#e7a12a"/><path d="M373.77,259.24V263q3.64-4.33,8.4-4.33a9.29,9.29,0,0,1,6.22,2.14q3.19,2.71,3.19,8.08v16.92h-8.12V269.63a6.15,6.15,0,0,0-1.09-4,3.64,3.64,0,0,0-2.94-1.3,4.55,4.55,0,0,0-2.8.92,13.6,13.6,0,0,0-2.86,3.46v17.15h-8.12V259.24h8.12Z" transform="translate(-338.97 -246.23)" style="fill:url(#linear-gradient-2)"/><path d="M391.84,286.11h-8.62V269.63a6,6,0,0,0-1-3.85,3.38,3.38,0,0,0-2.75-1.21,4.33,4.33,0,0,0-2.65.87,13.26,13.26,0,0,0-2.76,3.34v17.33H365.4V259H374v3.4a10.82,10.82,0,0,1,8.15-3.92,9.57,9.57,0,0,1,6.38,2.2c2.18,1.85,3.28,4.64,3.28,8.28v17.17Zm-8.12-.5h7.62V268.94c0-3.49-1-6.14-3.1-7.89a9.08,9.08,0,0,0-6.06-2.08c-3.08,0-5.84,1.43-8.21,4.24l-0.44.53v-4.25H365.9v26.12h7.62v-17l0-.06a13.88,13.88,0,0,1,2.92-3.53,4.82,4.82,0,0,1,3-1,3.9,3.9,0,0,1,3.13,1.39,6.41,6.41,0,0,1,1.15,4.18v16Z" transform="translate(-338.97 -246.23)" style="fill:#e7a12a"/><path d="M422.3,246.48v39.38h-8.12v-2.14a11.25,11.25,0,0,1-15.82-1.3,14.53,14.53,0,0,1-3.44-9.9,14.21,14.21,0,0,1,3.5-10,11.68,11.68,0,0,1,9-3.84,15,15,0,0,1,6.72,1.67V246.48h8.12Zm-8.12,32.11v-12.7a9.14,9.14,0,0,0-2.16-1.1,6.93,6.93,0,0,0-2.38-.46,5.74,5.74,0,0,0-4.76,2.19,9.74,9.74,0,0,0-1.74,6.18,9.36,9.36,0,0,0,1.71,5.86,5.41,5.41,0,0,0,4.51,2.22A7.07,7.07,0,0,0,414.17,278.58Z" transform="translate(-338.97 -246.23)" style="fill:url(#linear-gradient-3)"/><path d="M407,286.63a11.28,11.28,0,0,1-8.84-4,14.84,14.84,0,0,1-3.51-10.07,14.52,14.52,0,0,1,3.57-10.13,12,12,0,0,1,9.23-3.92,15.12,15.12,0,0,1,6.47,1.53V246.23h8.62v39.88h-8.62v-1.87A11.13,11.13,0,0,1,407,286.63ZM407.45,259a11.49,11.49,0,0,0-8.86,3.76,14,14,0,0,0-3.44,9.79,14.35,14.35,0,0,0,3.38,9.74A11,11,0,0,0,414,283.53l0.41-.34v2.42H422V246.73h-7.62V260.8l-0.36-.18A14.77,14.77,0,0,0,407.45,259Zm1.9,22.06a5.67,5.67,0,0,1-4.71-2.32,9.64,9.64,0,0,1-1.76-6,10,10,0,0,1,1.79-6.33,6,6,0,0,1,5-2.29,7.2,7.2,0,0,1,2.47.48,9.44,9.44,0,0,1,2.22,1.13l0.1,0.07v12.94l-0.08.07A7.34,7.34,0,0,1,409.36,281Zm0.28-16.46a5.53,5.53,0,0,0-4.56,2.1,9.54,9.54,0,0,0-1.68,6A9.16,9.16,0,0,0,405,278.4a5.13,5.13,0,0,0,4.31,2.13,6.81,6.81,0,0,0,4.57-2.05V266a9.12,9.12,0,0,0-2-1A6.7,6.7,0,0,0,409.64,264.57Z" transform="translate(-338.97 -246.23)" style="fill:#e7a12a"/><path d="M430.16,276.65a4.88,4.88,0,1,1-3.44,1.43A4.69,4.69,0,0,1,430.16,276.65Z" transform="translate(-338.97 -246.23)" style="fill:url(#linear-gradient-4)"/><path d="M430.16,286.64a5.12,5.12,0,1,1,3.62-1.5A5,5,0,0,1,430.16,286.64Zm0-9.75a4.62,4.62,0,1,0,3.27,7.89,4.42,4.42,0,0,0,1.35-3.27,4.47,4.47,0,0,0-1.35-3.27A4.42,4.42,0,0,0,430.16,276.9Z" transform="translate(-338.97 -246.23)" style="fill:#83a88b"/><path d="M446.49,259.24v7.62q3.7-8.14,8.35-8.14a5.72,5.72,0,0,1,2.38.52,17.5,17.5,0,0,1,3,1.9L458,268.53q-3-2-4.82-2a4.57,4.57,0,0,0-3.67,1.93,21.81,21.81,0,0,0-3,5.86v11.49h-8.12V259.24h8.12Z" transform="translate(-338.97 -246.23)" style="fill:url(#linear-gradient-5)"/><path d="M446.74,286.11h-8.62V259h8.62v6.76c2.38-4.83,5.11-7.28,8.1-7.28a6,6,0,0,1,2.48.54,17.82,17.82,0,0,1,3,1.93l0.14,0.1-2.39,7.88-0.28-.18c-2-1.28-3.54-1.92-4.68-1.92a4.3,4.3,0,0,0-3.47,1.84,21.6,21.6,0,0,0-2.94,5.75v11.7Zm-8.12-.5h7.62l0-11.33a22.15,22.15,0,0,1,3-5.93,4.83,4.83,0,0,1,3.86-2,9.52,9.52,0,0,1,4.67,1.82l2.09-6.91a16.76,16.76,0,0,0-2.81-1.77,5.5,5.5,0,0,0-2.28-.5c-3,0-5.71,2.69-8.12,8L446.24,268v-8.53h-7.62v26.12Z" transform="translate(-338.97 -246.23)" style="fill:#83a88b"/><path d="M481,285.86V282q-3.64,4.33-8.34,4.33A9.21,9.21,0,0,1,466,284q-2.8-2.71-2.8-7.68v-17h8.12V275.7a5.39,5.39,0,0,0,1.18,3.84,3.88,3.88,0,0,0,2.93,1.24,5.15,5.15,0,0,0,3.38-1.27,7.12,7.12,0,0,0,2.2-3.29v-17h8.12v26.62H481Z" transform="translate(-338.97 -246.23)" style="fill:url(#linear-gradient-6)"/><path d="M472.7,286.63a9.49,9.49,0,0,1-6.84-2.5c-1.91-1.85-2.88-4.49-2.88-7.86V259h8.62V275.7a5.18,5.18,0,0,0,1.11,3.67,3.61,3.61,0,0,0,2.75,1.17,4.93,4.93,0,0,0,3.22-1.21,6.89,6.89,0,0,0,2.11-3.14V259h8.62v27.12H480.8v-3.4A10.76,10.76,0,0,1,472.7,286.63Zm-9.22-27.14v16.79c0,3.22.92,5.75,2.72,7.5a9,9,0,0,0,6.49,2.36c3,0,5.79-1.43,8.15-4.24l0.44-.52v4.25h7.62V259.49H481.3v16.81a7.4,7.4,0,0,1-2.27,3.4,5.41,5.41,0,0,1-3.54,1.33,4.14,4.14,0,0,1-3.11-1.32,5.65,5.65,0,0,1-1.25-4V259.49h-7.62Z" transform="translate(-338.97 -246.23)" style="fill:#83a88b"/><path d="M348.38,296.95v1.69h-3.65v10h-2.1v-10H339v-1.69h9.41Z" transform="translate(-338.97 -246.23)" style="fill:#4b4b4b"/><path d="M360.52,302.7c0,4.33-3,6.21-5.83,6.21-3.17,0-5.61-2.32-5.61-6,0-3.92,2.56-6.22,5.8-6.22S360.52,299.12,360.52,302.7Zm-9.29.12c0,2.56,1.48,4.5,3.56,4.5s3.56-1.91,3.56-4.55c0-2-1-4.5-3.51-4.5S351.23,300.6,351.23,302.82Z" transform="translate(-338.97 -246.23)" style="fill:#4b4b4b"/><path d="M363.15,297.09a24.89,24.89,0,0,1,3.72-.27c2,0,5.2.31,5.2,2.93a2.77,2.77,0,0,1-2.44,2.64v0c1.72,0.24,3,1.21,3,2.9,0,3.07-3.87,3.46-6.17,3.46-1.31,0-2.66-.1-3.29-0.15V297.09Zm2,10.16a12.94,12.94,0,0,0,1.72.1c1.43,0,3.56-.34,3.56-2s-1.69-2.06-3.72-2.06h-1.55v4Zm0-5.39h1.6c1.57,0,3.19-.46,3.19-1.84,0-1.16-1-1.72-3.14-1.72a15.21,15.21,0,0,0-1.64.1v3.46Z" transform="translate(-338.97 -246.23)" style="fill:#4b4b4b"/><path d="M381.77,308.65l-0.17-1.48h-0.07a4.36,4.36,0,0,1-3.58,1.74,3.33,3.33,0,0,1-3.58-3.36c0-2.83,2.52-4.38,7-4.35V301a2.41,2.41,0,0,0-2.66-2.71,5.84,5.84,0,0,0-3,.87l-0.48-1.4a7.26,7.26,0,0,1,3.85-1c3.58,0,4.45,2.44,4.45,4.79v4.38a16.44,16.44,0,0,0,.19,2.81h-1.94Zm-0.31-6c-2.32,0-5,.36-5,2.64a1.88,1.88,0,0,0,2,2,2.91,2.91,0,0,0,2.83-2,2.23,2.23,0,0,0,.12-0.68v-2Z" transform="translate(-338.97 -246.23)" style="fill:#4b4b4b"/><path d="M386.94,300.77c0-1.5,0-2.71-.1-3.82h1.91l0.1,2h0a4.6,4.6,0,0,1,4.16-2.27c2.83,0,5,2.39,5,5.95,0,4.21-2.56,6.29-5.32,6.29a4.1,4.1,0,0,1-3.6-1.84h0v6.36h-2.1V300.77Zm2.1,3.12a4.81,4.81,0,0,0,.1.87,3.29,3.29,0,0,0,3.19,2.49c2.25,0,3.56-1.84,3.56-4.52,0-2.35-1.23-4.35-3.48-4.35a3.4,3.4,0,0,0-3.22,2.64,3.46,3.46,0,0,0-.15.87v2Z" transform="translate(-338.97 -246.23)" style="fill:#4b4b4b"/><path d="M402.76,296.95v4a10.05,10.05,0,0,1,1.91-.15c2.52,0,5.05,1,5.05,3.92a3.31,3.31,0,0,1-1.21,2.71,7.38,7.38,0,0,1-4.72,1.35,28.73,28.73,0,0,1-3.14-.17V296.95h2.1Zm0,10.23a11.77,11.77,0,0,0,1.48.1c1.62,0,3.39-.68,3.39-2.49s-1.69-2.47-3.29-2.47a9.7,9.7,0,0,0-1.57.12v4.74Zm10.54-10.23v11.71h-2.1V296.95h2.1Z" transform="translate(-338.97 -246.23)" style="fill:#4b4b4b"/><path d="M424,296.95v4.72h5.56v-4.72h2.1v11.71h-2.1v-5.3H424v5.3h-2.1V296.95H424Z" transform="translate(-338.97 -246.23)" style="fill:#4b4b4b"/><path d="M441.59,308.65l-0.17-1.48h-0.07a4.36,4.36,0,0,1-3.58,1.74,3.33,3.33,0,0,1-3.58-3.36c0-2.83,2.51-4.38,7-4.35V301a2.41,2.41,0,0,0-2.66-2.71,5.84,5.84,0,0,0-3,.87l-0.48-1.4a7.26,7.26,0,0,1,3.84-1c3.58,0,4.45,2.44,4.45,4.79v4.38a16.54,16.54,0,0,0,.19,2.81h-1.93Zm-0.31-6c-2.32,0-5,.36-5,2.64a1.88,1.88,0,0,0,2,2,2.91,2.91,0,0,0,2.83-2,2.2,2.2,0,0,0,.12-0.68v-2Z" transform="translate(-338.97 -246.23)" style="fill:#4b4b4b"/><path d="M461,296.95v10.11l1.21,0-0.12,5.3h-1.67l-0.1-3.72h-8.1l-0.1,3.72h-1.67l-0.1-5.3,1,0a9.12,9.12,0,0,0,1.16-2.39,15.44,15.44,0,0,0,.68-4.67v-3H461ZM455,300.5a15.5,15.5,0,0,1-.6,4.35,11.09,11.09,0,0,1-.94,2.18h5.39v-8.46H455v1.93Z" transform="translate(-338.97 -246.23)" style="fill:#4b4b4b"/><path d="M475.2,302.7c0,4.33-3,6.21-5.83,6.21-3.17,0-5.61-2.32-5.61-6,0-3.92,2.56-6.22,5.8-6.22S475.2,299.12,475.2,302.7Zm-9.29.12c0,2.56,1.48,4.5,3.56,4.5s3.55-1.91,3.55-4.55c0-2-1-4.5-3.51-4.5S465.91,300.6,465.91,302.82Z" transform="translate(-338.97 -246.23)" style="fill:#4b4b4b"/><path d="M478,296.95h2.61l2.13,5.9c0.29,0.87.8,2.3,1.06,3.22h0c0.27-.87.92-2.73,1.38-4l1.89-5.1h2.64l0.82,11.71h-2l-0.27-5.59c-0.07-1.26-.17-2.76-0.22-4.18H488c-0.31,1.06-.63,2-1.28,3.8l-2.25,5.9h-1.55l-2.08-5.78c-0.36-1.11-.87-2.81-1.16-3.89h-0.1c0,1.38-.12,2.93-0.19,4.21l-0.29,5.54h-2Z" transform="translate(-338.97 -246.23)" style="fill:#4b4b4b"/></svg>